<?xml version="1.0" encoding="utf-8"?>
<!-- Generator: Adobe Illustrator 22.0.1, SVG Export Plug-In . SVG Version: 6.00 Build 0)  -->
<svg version="1.1" id="Camada_1" xmlns="http://www.w3.org/2000/svg" xmlns:xlink="http://www.w3.org/1999/xlink" x="0px" y="0px"
	 viewBox="0 0 924 794" style="enable-background:new 0 0 924 794;" xml:space="preserve">
<style type="text/css">
	.st0{fill:none;stroke:url(#SVGID_1_);stroke-miterlimit:10;}
	.st1{fill:none;stroke:url(#SVGID_2_);stroke-miterlimit:10;}
	.st2{fill:none;stroke:url(#SVGID_3_);stroke-miterlimit:10;}
	.st3{fill:none;stroke:url(#SVGID_4_);stroke-miterlimit:10;}
	.st4{fill:none;stroke:url(#SVGID_5_);stroke-miterlimit:10;}
	.st5{fill:none;stroke:url(#SVGID_6_);stroke-miterlimit:10;}
	.st6{fill:none;stroke:url(#SVGID_7_);stroke-miterlimit:10;}
	.st7{fill:none;stroke:url(#SVGID_8_);stroke-miterlimit:10;}
	.st8{fill:none;stroke:url(#SVGID_9_);stroke-miterlimit:10;}
	.st9{fill:none;stroke:url(#SVGID_10_);stroke-miterlimit:10;}
	.st10{fill:none;stroke:url(#SVGID_11_);stroke-miterlimit:10;}
	.st11{fill:none;stroke:url(#SVGID_12_);stroke-miterlimit:10;}
	.st12{fill:none;stroke:url(#SVGID_13_);stroke-miterlimit:10;}
	.st13{fill:none;stroke:url(#SVGID_14_);stroke-miterlimit:10;}
	.st14{fill:#303036;stroke:url(#SVGID_15_);stroke-width:4;stroke-miterlimit:10;}
	.st15{fill:none;stroke:url(#SVGID_16_);stroke-width:2;stroke-miterlimit:10;}
	.st16{fill:none;stroke:url(#SVGID_17_);stroke-width:2;stroke-miterlimit:10;}
	.st17{fill:none;stroke:url(#SVGID_18_);stroke-width:2;stroke-miterlimit:10;}
	.st18{fill:none;stroke:url(#SVGID_19_);stroke-width:2;stroke-miterlimit:10;}
	.st19{fill:none;stroke:url(#SVGID_20_);stroke-width:2;stroke-miterlimit:10;}
	.st20{fill:none;stroke:url(#SVGID_21_);stroke-width:2;stroke-miterlimit:10;}
	.st21{fill:none;stroke:url(#SVGID_22_);stroke-width:2;stroke-miterlimit:10;}
	.st22{fill:none;stroke:url(#SVGID_23_);stroke-width:2;stroke-miterlimit:10;}
	.st23{fill:none;stroke:url(#SVGID_24_);stroke-width:2;stroke-miterlimit:10;}
	.st24{fill:none;stroke:url(#SVGID_25_);stroke-width:2;stroke-miterlimit:10;}
	.st25{fill:none;stroke:url(#SVGID_26_);stroke-width:2;stroke-miterlimit:10;}
	.st26{fill:none;stroke:url(#SVGID_27_);stroke-width:2;stroke-miterlimit:10;}
	.st27{fill:none;stroke:url(#SVGID_28_);stroke-width:2;stroke-miterlimit:10;}
	.st28{fill:none;stroke:url(#SVGID_29_);stroke-width:2;stroke-miterlimit:10;}
	.st29{fill:url(#SVGID_30_);}
</style>
<g>
	<g>
		<linearGradient id="SVGID_1_" gradientUnits="userSpaceOnUse" x1="212.8222" y1="650.8826" x2="456.217" y2="650.8826">
			<stop  offset="0" style="stop-color:#6EB068"/>
			<stop  offset="1" style="stop-color:#40A998"/>
		</linearGradient>
		<path class="st0" d="M295.7,853.2c0,0,33.4-149,77.7-225.3c41.9-72.1,83.4-96.1,82.2-109.6c-1.1-13.4-18.4-9.9-25.5,1.2
			c-7.1,11.1-32.6,33.5-51.6,26.2c-19-7.3-11.4-88.7-24.5-99.1c-13.1-10.3-14,27.7-13.6,60.9c0.4,33.2-24.2,10.8-35.2-30.6
			c-11-41.5-22.8-31.7-25.6-26.5c-2.8,5.2,25.8,80.6,22.4,83.4c-3.5,2.8-43.9-62.3-49-61.5c-5.1,0.9-14,4.1-5,24
			c9,19.9,41.4,56.2,38.2,60.9c-3.2,4.7-29.6-27.8-40.7-30.2c-11.1-2.4-9.1,14.1,8.7,31.7c17.8,17.6,56.5,39.4,49.5,94.1
			c-7.1,54.7-90.3,167.4-90.3,167.4S258.9,870.5,295.7,853.2z"/>
		<linearGradient id="SVGID_2_" gradientUnits="userSpaceOnUse" x1="501.4569" y1="383.7704" x2="912.3192" y2="383.7704">
			<stop  offset="0" style="stop-color:#6EB068"/>
			<stop  offset="1" style="stop-color:#40A998"/>
		</linearGradient>
		<path class="st1" d="M502.9,401.7c0,0,122-203.2,408.7-86.4c0,0-134.5,290.3-396,119.2c0,0,145.4-60.3,216-60.1
			C731.6,374.3,571.7,360.5,502.9,401.7z"/>
		<linearGradient id="SVGID_3_" gradientUnits="userSpaceOnUse" x1="491.9683" y1="586.817" x2="763.3138" y2="586.817">
			<stop  offset="0" style="stop-color:#6EB068"/>
			<stop  offset="1" style="stop-color:#40A998"/>
		</linearGradient>
		<path class="st2" d="M505.3,485.8c0,0,180.3-31.8,257.4,194.5c0,0-237.3,68.7-270.1-170.5c0,0,108.7,54.3,144.4,95.5
			C637,605.2,564.1,504.9,505.3,485.8z"/>
		<linearGradient id="SVGID_4_" gradientUnits="userSpaceOnUse" x1="1.5329" y1="349.781" x2="298.364" y2="349.781">
			<stop  offset="0" style="stop-color:#6EB068"/>
			<stop  offset="1" style="stop-color:#40A998"/>
		</linearGradient>
		<path class="st3" d="M288.7,434.9c0,0-174.8,59.3-286.4-154.3c0,0,226-104.9,295.4,128.5c0,0-116.7-37.3-158.6-73
			C139,336.1,227,424.8,288.7,434.9z"/>
		<linearGradient id="SVGID_5_" gradientUnits="userSpaceOnUse" x1="231.8755" y1="186.0222" x2="418.5663" y2="186.0222">
			<stop  offset="0" style="stop-color:#6EB068"/>
			<stop  offset="1" style="stop-color:#40A998"/>
		</linearGradient>
		<path class="st4" d="M349.3,361.9c0,0-181.9-98-91.9-352.4c0,0,258.3,105.3,119.9,340c0,0-58.3-124.2-61.1-185.7
			C316.2,163.8,310.6,303.7,349.3,361.9z"/>
		<linearGradient id="SVGID_6_" gradientUnits="userSpaceOnUse" x1="650.8375" y1="230.3846" x2="790.742" y2="230.3846">
			<stop  offset="0" style="stop-color:#6EB068"/>
			<stop  offset="1" style="stop-color:#40A998"/>
		</linearGradient>
		<path class="st5" d="M652.2,241.5c0,0,36.9-72.5,137.9-39.4c0,0-39.1,102.6-132.8,50.3c0,0,48.3-24.1,72.5-25.7
			C729.8,226.7,674.7,225.8,652.2,241.5z"/>
		<linearGradient id="SVGID_7_" gradientUnits="userSpaceOnUse" x1="422.513" y1="95.1987" x2="496.06" y2="95.1987">
			<stop  offset="0" style="stop-color:#6EB068"/>
			<stop  offset="1" style="stop-color:#40A998"/>
		</linearGradient>
		<path class="st6" d="M441.9,168.1c0,0-53.5-65,19.7-147c0,0,81.1,79.5-7.2,146.7c0,0-2.8-55.8,5.6-79.4
			C459.9,88.4,436.2,140.3,441.9,168.1z"/>
		<linearGradient id="SVGID_8_" gradientUnits="userSpaceOnUse" x1="185.4056" y1="624.8602" x2="276.0139" y2="624.8602">
			<stop  offset="0" style="stop-color:#6EB068"/>
			<stop  offset="1" style="stop-color:#40A998"/>
		</linearGradient>
		<path class="st7" d="M275.4,591.8c0,0-4.2,65.4-89.5,73.1c0,0-3.8-88.4,82.2-79.5c0,0-28.1,33.2-45.4,42.2
			C222.7,627.6,263.7,610.7,275.4,591.8z"/>
		<linearGradient id="SVGID_9_" gradientUnits="userSpaceOnUse" x1="70.7005" y1="171.3832" x2="209.5371" y2="171.3832">
			<stop  offset="0" style="stop-color:#6EB068"/>
			<stop  offset="1" style="stop-color:#40A998"/>
		</linearGradient>
		<path class="st8" d="M195.2,253c0,0-115.8-11.7-123.9-163.5c0,0,157.1-1,135.8,151c0,0-57.2-52-71.9-83.4
			C135.1,157.2,162.5,231.1,195.2,253z"/>
		<linearGradient id="SVGID_10_" gradientUnits="userSpaceOnUse" x1="696.8421" y1="549.0909" x2="842.3457" y2="549.0909">
			<stop  offset="0" style="stop-color:#6EB068"/>
			<stop  offset="1" style="stop-color:#40A998"/>
		</linearGradient>
		<path class="st9" d="M702.1,506.8c0,0,85.9-28.2,139.6,76.9c0,0-111.2,50.3-144.1-64.3c0,0,57,18.8,77.4,36.5
			C774.9,556,732.2,512.1,702.1,506.8z"/>
		<linearGradient id="SVGID_11_" gradientUnits="userSpaceOnUse" x1="455.6351" y1="168.4256" x2="674.6306" y2="168.4256">
			<stop  offset="0" style="stop-color:#6EB068"/>
			<stop  offset="1" style="stop-color:#40A998"/>
		</linearGradient>
		<path class="st10" d="M457.3,294c0,0-29.4-189.1,208.8-265c0,0,66.7,249.6-184,278.7c0,0,59-112.5,102.9-149
			C585,158.8,478.6,233,457.3,294z"/>
		<linearGradient id="SVGID_12_" gradientUnits="userSpaceOnUse" x1="403.1124" y1="666.9439" x2="511.1882" y2="666.9439">
			<stop  offset="0" style="stop-color:#6EB068"/>
			<stop  offset="1" style="stop-color:#40A998"/>
		</linearGradient>
		<path class="st11" d="M453.8,560.1c0,0,101.9,69.2,33,214.6c0,0-146.7-78.2-50.3-209c0,0,27,77.2,24.9,113.8
			C461.3,679.5,473.2,596.9,453.8,560.1z"/>
		<linearGradient id="SVGID_13_" gradientUnits="userSpaceOnUse" x1="35.6676" y1="510.8255" x2="239.1991" y2="510.8255">
			<stop  offset="0" style="stop-color:#6EB068"/>
			<stop  offset="1" style="stop-color:#40A998"/>
		</linearGradient>
		<path class="st12" d="M237.5,516.5c0,0-72.6,88.4-201.2,12.4c0,0,84.7-129.1,197.4-29c0,0-73.6,18.5-107.3,13.5
			C126.5,513.4,201.8,531.3,237.5,516.5z"/>
		<linearGradient id="SVGID_14_" gradientUnits="userSpaceOnUse" x1="358.6479" y1="413.4125" x2="486.143" y2="413.4125">
			<stop  offset="0" style="stop-color:#6EB068"/>
			<stop  offset="1" style="stop-color:#40A998"/>
		</linearGradient>
		<polygon class="st13" points="485,418.6 485,418.6 435.5,400.2 473.6,344.4 474.2,343.5 474.2,343.5 434.6,365.9 359.8,408.2 
			409.3,426.6 409.3,426.6 409.3,426.6 407.7,428.9 387.4,458.6 370.5,483.3 404,464.4 410.1,460.9 485,418.6 485,418.6 		"/>
	</g>
</g>
<g>
	<linearGradient id="SVGID_15_" gradientUnits="userSpaceOnUse" x1="359.7315" y1="397" x2="736.2685" y2="397">
		<stop  offset="0" style="stop-color:#6EB068"/>
		<stop  offset="1" style="stop-color:#40A998"/>
	</linearGradient>
	<path class="st14" d="M694.3,583.3H401.7c-22.1,0-40-17.9-40-40V250.7c0-22.1,17.9-40,40-40h292.5c22.1,0,40,17.9,40,40v292.5
		C734.3,565.4,716.4,583.3,694.3,583.3z"/>
	<g>
		<linearGradient id="SVGID_16_" gradientUnits="userSpaceOnUse" x1="495.9431" y1="492.1518" x2="576.7631" y2="492.1518">
			<stop  offset="0" style="stop-color:#6EB068"/>
			<stop  offset="1" style="stop-color:#40A998"/>
		</linearGradient>
		<path class="st15" d="M570.9,563.7c0,0-11-56.2-7.2-89.1c3.5-31.1,14.2-45.6,11.7-50c-2.4-4.4-7.8-0.6-8.6,4.2
			c-0.8,4.9-6.1,16.4-13.8,16.8c-7.6,0.4-17.3-28.8-23.3-30.3c-6-1.6-0.6,11.6,4.5,23c5.1,11.3-6.7,7.4-16.7-5.2
			c-10-12.6-12.6-7.5-12.8-5.3c-0.2,2.2,21,23.8,20.3,25.3c-0.8,1.5-24.5-14.8-26.1-13.7c-1.6,1.1-4.2,3.5,1.9,9
			c6.1,5.5,22.7,13.1,22.3,15.2c-0.4,2.1-14.3-5.1-18.5-4.3c-4.2,0.8-1,6.2,7.8,9.6c8.8,3.4,25.3,5,31.2,24.9
			c5.8,19.9-5.8,71.1-5.8,71.1S560.9,575.2,570.9,563.7z"/>
		<linearGradient id="SVGID_17_" gradientUnits="userSpaceOnUse" x1="572.5579" y1="337.5359" x2="702.463" y2="337.5359">
			<stop  offset="0" style="stop-color:#6EB068"/>
			<stop  offset="1" style="stop-color:#40A998"/>
		</linearGradient>
		<path class="st16" d="M574.1,377.4c0,0,11.3-88.2,127.4-91.2c0,0-2.5,120-118.1,100.6c0,0,40.9-42.6,65.1-53.2
			C648.5,333.6,591.5,352.9,574.1,377.4z"/>
		<linearGradient id="SVGID_18_" gradientUnits="userSpaceOnUse" x1="583.6436" y1="425.4179" x2="706.6847" y2="425.4179">
			<stop  offset="0" style="stop-color:#6EB068"/>
			<stop  offset="1" style="stop-color:#40A998"/>
		</linearGradient>
		<path class="st17" d="M587.5,406c0,0,57.1-38.1,117.7,28c0,0-71.2,59.3-118.5-17.9c0,0,45.5,2.3,64,11
			C650.8,427.2,610.6,403.7,587.5,406z"/>
		<linearGradient id="SVGID_19_" gradientUnits="userSpaceOnUse" x1="382.3872" y1="409.6194" x2="509.0934" y2="409.6194">
			<stop  offset="0" style="stop-color:#6EB068"/>
			<stop  offset="1" style="stop-color:#40A998"/>
		</linearGradient>
		<path class="st18" d="M505.5,421.1c0,0-51.1,46.7-121.6-9.9c0,0,61.8-70.1,120.8-0.4c0,0-45.7,4.8-65.5-1.2
			C439.2,409.7,482.8,426.9,505.5,421.1z"/>
		<linearGradient id="SVGID_20_" gradientUnits="userSpaceOnUse" x1="429.5685" y1="333.4464" x2="525.0354" y2="333.4464">
			<stop  offset="0" style="stop-color:#6EB068"/>
			<stop  offset="1" style="stop-color:#40A998"/>
		</linearGradient>
		<path class="st19" d="M515.3,386.9c0,0-77.3-6.3-84.7-107.2c0,0,104.6-2.7,92.4,98.7c0,0-38.7-33.9-49-54.6
			C474.1,323.9,493.3,372.8,515.3,386.9z"/>
		<linearGradient id="SVGID_21_" gradientUnits="userSpaceOnUse" x1="599.9801" y1="284.3581" x2="643.666" y2="284.3581">
			<stop  offset="0" style="stop-color:#6EB068"/>
			<stop  offset="1" style="stop-color:#40A998"/>
		</linearGradient>
		<path class="st20" d="M601.2,299.9c0,0,1.8-30.5,41.4-34.3c0,0,2,41.1-38,37.3c0,0,13-15.6,21-19.8
			C625.7,283.1,606.6,291.1,601.2,299.9z"/>
		<linearGradient id="SVGID_22_" gradientUnits="userSpaceOnUse" x1="498.2081" y1="280.3734" x2="528.8723" y2="280.3734">
			<stop  offset="0" style="stop-color:#6EB068"/>
			<stop  offset="1" style="stop-color:#40A998"/>
		</linearGradient>
		<path class="st21" d="M517.9,306.4c0,0-28.2-14.3-15.4-53.5c0,0,39.8,15.1,19.6,51.5c0,0-9.4-18.7-10-28.1
			C512.1,276.3,511.8,297.7,517.9,306.4z"/>
		<linearGradient id="SVGID_23_" gradientUnits="userSpaceOnUse" x1="500.3634" y1="494.9469" x2="526.717" y2="494.9469">
			<stop  offset="0" style="stop-color:#6EB068"/>
			<stop  offset="1" style="stop-color:#40A998"/>
		</linearGradient>
		<path class="st22" d="M524.5,477c0,0,8.4,23.1-19.7,38.6c0,0-14.6-29.8,16.3-39.7c0,0-4.6,15.6-9.3,21.3
			C511.8,497.2,523.4,485.2,524.5,477z"/>
		<linearGradient id="SVGID_24_" gradientUnits="userSpaceOnUse" x1="377.3989" y1="352.1927" x2="450.0674" y2="352.1927">
			<stop  offset="0" style="stop-color:#6EB068"/>
			<stop  offset="1" style="stop-color:#40A998"/>
		</linearGradient>
		<path class="st23" d="M446,372.7c0,0-41.5,13.4-67.2-37.5c0,0,53.8-24,69.4,31.4c0,0-27.5-9.2-37.3-17.8
			C410.9,348.8,431.4,370.1,446,372.7z"/>
		<linearGradient id="SVGID_25_" gradientUnits="userSpaceOnUse" x1="654.6669" y1="389.4547" x2="719.2897" y2="389.4547">
			<stop  offset="0" style="stop-color:#6EB068"/>
			<stop  offset="1" style="stop-color:#40A998"/>
		</linearGradient>
		<path class="st24" d="M658.3,383.6c0,0,25.2-22.6,59.5,5.4c0,0-30.6,34-59.2-0.4c0,0,22.4-2.1,32.1,0.9
			C690.7,389.5,669.5,380.8,658.3,383.6z"/>
		<linearGradient id="SVGID_26_" gradientUnits="userSpaceOnUse" x1="530.6219" y1="287.3395" x2="596.5446" y2="287.3395">
			<stop  offset="0" style="stop-color:#6EB068"/>
			<stop  offset="1" style="stop-color:#40A998"/>
		</linearGradient>
		<path class="st25" d="M542.2,347.3c0,0-38.6-60.5,31.8-122.5c0,0,60.5,75.7-21.2,123.4c0,0,3.3-47.5,12.9-66.7
			C565.7,281.7,540.3,323.2,542.2,347.3z"/>
		<linearGradient id="SVGID_27_" gradientUnits="userSpaceOnUse" x1="573.0223" y1="473.2976" x2="625.7332" y2="473.2976">
			<stop  offset="0" style="stop-color:#6EB068"/>
			<stop  offset="1" style="stop-color:#40A998"/>
		</linearGradient>
		<path class="st26" d="M581,439.2c0,0,45.4,8.4,43.6,68.8c0,0-62.2-4.8-48.8-64.2c0,0,20.9,22.5,25.7,35.4
			C601.6,479.1,593.2,449,581,439.2z"/>
		<linearGradient id="SVGID_28_" gradientUnits="userSpaceOnUse" x1="431.8063" y1="470.29" x2="502.2424" y2="470.29">
			<stop  offset="0" style="stop-color:#6EB068"/>
			<stop  offset="1" style="stop-color:#40A998"/>
		</linearGradient>
		<path class="st27" d="M500.2,456.8c0,0-11.6,41.3-67.2,34.6c0,0,9.6-57.1,63.5-39.7c0,0-22.5,17.4-34.8,20.8
			C461.6,472.5,490.2,467.3,500.2,456.8z"/>
		<linearGradient id="SVGID_29_" gradientUnits="userSpaceOnUse" x1="523.8065" y1="393.5929" x2="572.5255" y2="393.5929">
			<stop  offset="0" style="stop-color:#6EB068"/>
			<stop  offset="1" style="stop-color:#40A998"/>
		</linearGradient>
		<polygon class="st28" points="570.4,385.9 570.4,385.9 550.7,387.1 555.4,362.2 555.4,361.8 555.4,361.8 545.2,375.4 525.9,401.2 
			545.6,400.1 545.6,400.1 545.6,400.1 545.5,401.1 543,414.4 540.9,425.4 549.5,413.9 551.1,411.8 570.4,385.9 570.4,385.9 		"/>
	</g>
	<linearGradient id="SVGID_30_" gradientUnits="userSpaceOnUse" x1="548" y1="425.4917" x2="548" y2="361.8427">
		<stop  offset="0" style="stop-color:#FFD400"/>
		<stop  offset="1" style="stop-color:#F7941E"/>
	</linearGradient>
	<polygon class="st29" points="570.3,386 570.3,386 550.5,387.2 555.2,362.3 555.3,361.8 555.3,361.8 545.1,375.5 525.7,401.3 
		545.5,400.2 545.5,400.2 545.5,400.2 545.3,401.2 542.8,414.4 540.7,425.5 549.4,414 550.9,411.8 570.3,386 570.3,386 	"/>
</g>
</svg>
